<?xml version="1.0" encoding="utf-8"?>
<!-- Generator: Adobe Illustrator 19.1.0, SVG Export Plug-In . SVG Version: 6.00 Build 0)  -->
<svg version="1.1" id="Layer_1" xmlns="http://www.w3.org/2000/svg" xmlns:xlink="http://www.w3.org/1999/xlink" x="0px" y="0px"
	 viewBox="0 0 46.3 41.4" style="enable-background:new 0 0 46.3 41.4;" xml:space="preserve">
<style type="text/css">
	.st0{fill:#91C3D5;}
</style>
<g>
	<path class="st0" d="M46.3,2c0-1.1-0.9-2-2-2H14.1c-1.1,0-2,0.9-2,2v37.4c0,1.1,0.9,2,2,2h23.7l0,0h0h0c0.2,0,0.3,0,0.5-0.1
		c0,0,0,0,0,0c0.2-0.1,0.3-0.2,0.4-0.3l7.2-7.2c0.2-0.2,0.4-0.6,0.4-0.9c0-0.2,0-0.3-0.1-0.5c0-0.1,0.1-0.2,0.1-0.4V2z M14.7,2.5h29
		v28.4h-5.9c-1.1,0-2,0.9-2,2v5.9H14.7V2.5z M38.4,37.7v-4.2h4.2L38.4,37.7z"/>
	<path class="st0" d="M23.8,8.5h10.9c0.7,0,1.3-0.6,1.3-1.3s-0.6-1.3-1.3-1.3H23.8c-0.7,0-1.3,0.6-1.3,1.3S23.1,8.5,23.8,8.5z"/>
	<path class="st0" d="M17.5,13.5h23.6c0.7,0,1.3-0.6,1.3-1.3c0-0.7-0.6-1.3-1.3-1.3H17.5c-0.7,0-1.3,0.6-1.3,1.3
		C16.2,12.9,16.8,13.5,17.5,13.5z"/>
	<path class="st0" d="M17.5,18.5h23.6c0.7,0,1.3-0.6,1.3-1.3c0-0.7-0.6-1.3-1.3-1.3H17.5c-0.7,0-1.3,0.6-1.3,1.3
		C16.2,17.9,16.8,18.5,17.5,18.5z"/>
	<path class="st0" d="M17.5,23.5h23.6c0.7,0,1.3-0.6,1.3-1.3c0-0.7-0.6-1.3-1.3-1.3H17.5c-0.7,0-1.3,0.6-1.3,1.3
		C16.2,22.9,16.8,23.5,17.5,23.5z"/>
	<path class="st0" d="M41.1,28.5c0.7,0,1.3-0.6,1.3-1.3c0-0.7-0.6-1.3-1.3-1.3H17.5c-0.7,0-1.3,0.6-1.3,1.3c0,0.7,0.6,1.3,1.3,1.3
		H41.1z"/>
	<path class="st0" d="M6,0H2C0.8,0-0.1,0.9-0.1,2.1v4C-0.1,6.4,0,6.8,0.1,7C0.1,7.3,0,7.5,0,7.7v24c0,0.1,0,0.2,0,0.2
		c0,0.2,0,0.5,0.1,0.8l2.6,5.8v1.6c0,0.7,0.6,1.3,1.3,1.3c0.7,0,1.3-0.6,1.3-1.3v-1.6l2.6-5.8C8,32.5,8,32.2,7.9,32
		c0-0.1,0-0.2,0-0.2v-24C8,7.5,7.9,7.3,7.8,7C8,6.8,8.1,6.4,8.1,6.1v-4C8.1,0.9,7.1,0,6,0z M5.4,31.3H2.5V8.2h2.9V31.3z M4,35.1
		l-0.6-1.3h1.1L4,35.1z M2.4,2.5h3.1v3.1H2.4V2.5z"/>
</g>
</svg>
