<?xml version="1.0" encoding="utf-8"?>
<!-- Generator: Adobe Illustrator 19.1.0, SVG Export Plug-In . SVG Version: 6.00 Build 0)  -->
<svg version="1.1" id="Layer_1" xmlns="http://www.w3.org/2000/svg" xmlns:xlink="http://www.w3.org/1999/xlink" x="0px" y="0px"
	 viewBox="0 0 51.5 53" style="enable-background:new 0 0 51.5 53;" xml:space="preserve">
<style type="text/css">
	.st0{fill:#91C3D5;}
</style>
<g>
	<path class="st0" d="M17.4,10.1c-4,0-7.3,3.3-7.3,7.3c0,4,3.3,7.3,7.3,7.3s7.3-3.3,7.3-7.3C24.7,13.4,21.4,10.1,17.4,10.1z
		 M17.4,21.9c-2.5,0-4.5-2-4.5-4.5c0-2.5,2-4.5,4.5-4.5s4.5,2,4.5,4.5C21.9,19.9,19.9,21.9,17.4,21.9z"/>
	<path class="st0" d="M28.1,31.3l3.1-3.1c0.4-0.4,0.6-1,0.6-1.6c0-0.6-0.2-1.1-0.6-1.6l-2.6-2.6c0.1-0.2,0.2-0.4,0.2-0.6h3.7
		c1.2,0,2.2-1,2.2-2.2v-4.4c0-1.2-1-2.2-2.2-2.2h-3.7c-0.1-0.2-0.1-0.4-0.2-0.6l2.6-2.6c0.9-0.9,0.9-2.3,0-3.1l-3.1-3.1
		c-0.8-0.8-2.3-0.8-3.1,0l-2.6,2.6C22.2,6.1,22,6,21.8,5.9V2.2c0-1.2-1-2.2-2.2-2.2h-4.4C14,0,13,1,13,2.2v3.7
		c-0.2,0.1-0.4,0.1-0.6,0.2L9.8,3.5C9,2.7,7.5,2.7,6.7,3.5L3.5,6.7c-0.4,0.4-0.6,1-0.6,1.6c0,0.6,0.2,1.1,0.6,1.6l2.6,2.6
		C6.1,12.6,6,12.8,5.9,13H2.2C1,13,0,14,0,15.2v4.4c0,1.2,1,2.2,2.2,2.2h3.7C6,22,6.1,22.2,6.2,22.4L3.5,25c-0.9,0.9-0.9,2.3,0,3.1
		l3.1,3.1c0.8,0.8,2.3,0.8,3.1,0l2.6-2.6c0.2,0.1,0.4,0.2,0.6,0.2v3.7c0,1.2,1,2.2,2.2,2.2h4.4c1.2,0,2.2-1,2.2-2.2v-3.7
		c0.2-0.1,0.4-0.1,0.6-0.2l2.6,2.6C25.9,32.1,27.3,32.1,28.1,31.3z M23.6,26c-0.4-0.4-1.1-0.5-1.7-0.2c-0.6,0.3-1.3,0.6-1.9,0.8
		c-0.6,0.2-1,0.7-1,1.3V32h-3.3v-4.1c0-0.6-0.4-1.2-1-1.3c-0.7-0.2-1.3-0.5-1.9-0.8c-0.5-0.3-1.2-0.2-1.7,0.2l-2.9,2.9l-2.3-2.3
		l2.9-2.9c0.4-0.4,0.5-1.1,0.2-1.7c-0.3-0.6-0.6-1.3-0.8-1.9c-0.2-0.6-0.7-1-1.3-1H2.8v-3.3h4.1c0.6,0,1.2-0.4,1.3-1
		c0.2-0.7,0.5-1.3,0.8-1.9c0.3-0.5,0.2-1.2-0.2-1.7L5.9,8.2l2.3-2.3l2.9,2.9c0.4,0.4,1.1,0.5,1.7,0.2c0.6-0.3,1.3-0.6,1.9-0.8
		c0.6-0.2,1-0.7,1-1.3V2.8H19v4.1c0,0.6,0.4,1.2,1,1.3c0.7,0.2,1.3,0.5,1.9,0.8c0.5,0.3,1.2,0.2,1.7-0.2l2.9-2.9l2.3,2.3L26,11.2
		c-0.4,0.4-0.5,1.1-0.2,1.7c0.3,0.6,0.6,1.3,0.8,1.9c0.2,0.6,0.7,1,1.3,1H32V19h-4.1c-0.6,0-1.2,0.4-1.3,1c-0.2,0.7-0.5,1.3-0.8,1.9
		c-0.3,0.5-0.2,1.2,0.2,1.7l2.9,2.9l-2.3,2.3L23.6,26z"/>
	<path class="st0" d="M50,41.8l-2.1-1.1l2.3-0.7c1-0.3,1.6-1.5,1.3-2.5l-1-3.1c-0.3-1-1.5-1.6-2.5-1.3l-2.3,0.7l1.1-2.1
		c0.5-1,0.1-2.2-0.9-2.7L43,27.5c-1-0.5-2.2-0.1-2.7,0.9l-1.1,2.1l-0.7-2.3c-0.3-1-1.5-1.6-2.5-1.3l-3.1,1c-1,0.3-1.6,1.5-1.3,2.5
		l0.7,2.3l-2.1-1.1c-0.9-0.5-2.2-0.1-2.7,0.9L26,35.4c-0.2,0.5-0.3,1-0.1,1.5c0.2,0.5,0.5,0.9,1,1.2l2.1,1.1l-2.3,0.7
		c-0.5,0.2-0.9,0.5-1.2,1c-0.2,0.5-0.3,1-0.1,1.5l1,3.1c0.3,1,1.5,1.6,2.5,1.3l2.3-0.7l-1.1,2.1c-0.2,0.5-0.3,1-0.1,1.5
		c0.2,0.5,0.5,0.9,1,1.2l2.9,1.5c1,0.5,2.2,0.1,2.7-0.9l1.1-2.1l0.7,2.3c0.3,0.8,1,1.4,1.9,1.4c0.2,0,0.4,0,0.6-0.1l3.1-1
		c0.5-0.2,0.9-0.5,1.2-1c0.2-0.5,0.3-1,0.1-1.5l-0.7-2.3l2.1,1.1c0.3,0.1,0.6,0.2,0.9,0.2c0,0,0,0,0,0c0.8,0,1.4-0.4,1.8-1.1
		l1.5-2.9C51.4,43.5,51,42.3,50,41.8z M47.3,45.4l-2.4-1.2c-0.6-0.3-1.2-0.2-1.7,0.3c-0.3,0.3-0.7,0.7-1.1,0.9
		c-0.5,0.3-0.7,1-0.5,1.6l0.8,2.5L40.9,50L40,47.5c-0.2-0.6-0.7-1-1.3-1c0,0,0,0,0,0l-0.2,0c-0.4,0-0.8,0-1.2-0.1
		c-0.6-0.1-1.2,0.2-1.5,0.7l-1.2,2.4L33,48.8l1.2-2.4c0.3-0.6,0.2-1.2-0.3-1.7c-0.3-0.3-0.7-0.7-0.9-1.1c-0.3-0.5-1-0.7-1.6-0.5
		l-2.5,0.8l-0.5-1.6l2.5-0.8c0.6-0.2,1-0.8,1-1.4c0-0.5,0-1,0.1-1.5c0.1-0.6-0.2-1.2-0.7-1.5L28.9,36l0.7-1.5l2.4,1.2
		c0.6,0.3,1.2,0.2,1.7-0.3c0.3-0.3,0.7-0.7,1.1-0.9c0.5-0.3,0.7-1,0.5-1.6l-0.8-2.5l1.6-0.5l0.8,2.5c0.2,0.6,0.7,1,1.4,1l0.2,0
		c0.4,0,0.8,0,1.2,0.1c0.6,0.1,1.2-0.2,1.5-0.7l1.2-2.4l1.5,0.7l-1.2,2.4c-0.3,0.6-0.2,1.2,0.3,1.7c0.3,0.3,0.7,0.7,0.9,1.1
		c0.3,0.5,1,0.7,1.6,0.5L48,36l0.5,1.6L46,38.4c-0.6,0.2-1,0.8-1,1.4c0,0.5,0,1-0.1,1.4c-0.1,0.6,0.2,1.2,0.7,1.5l2.4,1.2L47.3,45.4
		z"/>
	<path class="st0" d="M38.5,34.5c-0.6,0-1.1,0.1-1.7,0.3c-2.9,0.9-4.4,4-3.5,6.9c0.7,2.3,2.8,3.8,5.2,3.8c0.6,0,1.1-0.1,1.7-0.3
		c1.4-0.5,2.5-1.4,3.2-2.7c0.7-1.3,0.8-2.8,0.3-4.2C42.9,36,40.8,34.5,38.5,34.5z M40.8,41.2c-0.3,0.6-0.9,1.1-1.5,1.3
		c-1.4,0.4-2.9-0.3-3.4-1.7c-0.5-1.4,0.3-2.9,1.7-3.4c0.3-0.1,0.5-0.1,0.8-0.1c1.2,0,2.2,0.7,2.5,1.8C41.2,39.8,41.1,40.5,40.8,41.2
		z"/>
</g>
</svg>
