<?xml version="1.0" encoding="utf-8"?>
<!-- Generator: Adobe Illustrator 19.1.0, SVG Export Plug-In . SVG Version: 6.00 Build 0)  -->
<svg version="1.1" id="Layer_1" xmlns="http://www.w3.org/2000/svg" xmlns:xlink="http://www.w3.org/1999/xlink" x="0px" y="0px"
	 viewBox="0 0 45.8 40.4" style="enable-background:new 0 0 45.8 40.4;" xml:space="preserve">
<style type="text/css">
	.st0{fill:#91C3D5;}
</style>
<g>
	<path class="st0" d="M43.6,0H2.2C1,0,0,1,0,2.2v25.7c0,1.2,1,2.2,2.2,2.2h15.4v3.5h-4.9c-0.8,0-1.4,0.6-1.4,1.4v4
		c0,0.8,0.6,1.4,1.4,1.4h20.3c0.8,0,1.4-0.6,1.4-1.4v-4c0-0.8-0.6-1.4-1.4-1.4h-4.9v-3.5h15.4c1.2,0,2.2-1,2.2-2.2V2.2
		C45.8,1,44.8,0,43.6,0z M31.7,37.6H14.2v-1.2h17.5V37.6z M25.4,33.5h-5v-3.5h5V33.5z M43,27.3H26.8H19H2.8V2.8H43V27.3z"/>
	<path class="st0" d="M6.1,25.1h33.7c0.8,0,1.4-0.6,1.4-1.4V5.5c0-0.8-0.6-1.4-1.4-1.4H6.1c-0.8,0-1.4,0.6-1.4,1.4v18.2
		C4.7,24.5,5.3,25.1,6.1,25.1z M7.5,6.9h30.9v15.4H7.5V6.9z"/>
</g>
</svg>
